<svg width="56" height="93" viewBox="0 0 56 93" fill="none" xmlns="http://www.w3.org/2000/svg">
<path  d="M48.2999 92.3C48.1999 92.2 47.7999 92.2 47.1999 92.2C46.5999 92.2 46.0999 92 45.6999 91.6C45.2999 91.2 44.8999 91 44.4999 91C44.0999 91 43.5999 90.4 42.8999 89.3C41.9999 87.5 41.3999 86 41.0999 84.7C40.9999 84.3 40.7999 83.9 40.5999 83.4C40.3999 83.3 40.2999 83.2 40.1999 83.1C40.0999 83 39.9999 83 39.8999 83C39.4999 82.6 39.1999 82.1 38.9999 81.3C38.7999 81 38.6999 80.8 38.6999 80.7C38.6999 80.6 38.5999 80.3 38.2999 79.8C37.7999 78.9 37.5999 78.2 37.5999 77.7L37.6999 77.4C37.6999 77.2 37.4999 77.1 36.9999 77C36.4999 76.9 36.1999 76.9 35.8999 76.9C35.5999 76.9 35.0999 76.7 34.4999 76.3C33.8999 75.9 33.3999 75.7 33.2999 75.7C32.7999 76 32.4999 76.3 32.4999 76.7C32.4999 77.1 32.7999 77.4 33.2999 77.7C33.7999 78 34.0999 78.3 34.1999 78.5C34.1999 78.7 34.2999 79 34.4999 79.4C34.6999 79.8 34.6999 80.2 34.6999 80.7C34.6999 81.5 34.4999 82.1 33.9999 82.5C33.6999 82.6 33.5999 82.7 33.5999 82.8C33.5999 83 33.7999 83.2 34.1999 83.3C34.5999 83.5 34.7999 83.7 34.7999 83.9C34.7999 84 34.6999 84 34.4999 84C34.3999 84 34.2999 83.9 34.0999 83.7C33.0999 83.2 32.5999 82.9 32.5999 82.6V82.5C32.5999 82.4 32.6999 82.2 32.9999 82C33.2999 81.8 33.3999 81.5 33.3999 81.3C33.3999 81.1 33.0999 81 32.4999 81C31.8999 81 31.3999 80.7 31.0999 80C30.7999 79.3 30.3999 79 29.6999 79C29.3999 79 29.1999 78.9 28.9999 78.7C28.7999 78.5 28.5999 78.4 28.4999 78.4C28.3999 78.4 28.2999 78.5 28.1999 78.7C28.0999 78.9 27.8999 79 27.5999 79C27.2999 79 26.7999 79.5 26.0999 80.5C25.7999 80.9 25.6999 81.3 25.6999 81.6C25.6999 81.9 25.3999 82.2 24.7999 82.7C24.4999 83 24.3999 83.1 24.2999 83.1C23.9999 83.1 23.8999 83 23.8999 82.9C23.8999 82.8 23.7999 82.7 23.7999 82.6L23.5999 82.7C23.5999 83.8 23.5999 84.4 23.4999 84.4C23.0999 84.4 22.7999 84.3 22.7999 84.1C22.7999 81.8 22.8999 80.2 23.1999 79.4C23.1999 79 23.1999 78.9 23.0999 78.9C22.7999 78.9 22.4999 79.2 21.9999 79.8C21.0999 81.1 20.2999 81.7 19.6999 81.7C19.4999 81.7 19.2999 81.4 19.1999 80.8C18.7999 81.3 18.6999 81.8 18.6999 82.3C18.6999 82.8 18.5999 83 18.2999 83C17.9999 82.9 17.8999 82.4 17.8999 81.5C17.8999 80.9 17.9999 80.5 18.0999 80.2C18.1999 79.9 18.2999 79.7 18.2999 79.4C18.2999 79.1 18.3999 78.9 18.5999 78.7C18.7999 78.5 18.8999 78.3 18.8999 78.2C18.8999 78.1 18.5999 77.9 17.9999 77.9C17.5999 77.9 17.2999 78 16.8999 78.3C16.4999 78.6 16.0999 78.8 15.6999 79C15.2999 79.2 14.3999 79.9 13.1999 81C12.9999 81 12.8999 81.1 12.7999 81.3C12.6999 81.5 12.4999 81.6 12.0999 81.6L11.2999 81.5C11.1999 81.5 11.0999 81.6 11.0999 81.8C11.0999 82 10.8999 82.2 10.7999 82.6C10.7999 83 10.8999 83.3 11.0999 83.6C11.2999 83.9 11.3999 84.1 11.3999 84.2C11.3999 84.3 11.3999 84.3 11.2999 84.3C11.0999 84.3 10.8999 84.2 10.5999 83.9C10.2999 83.6 10.1999 83.4 10.0999 83.3C9.99991 83.2 9.99991 82.9 9.99991 82.6C9.99991 82.3 9.9999 82 9.8999 81.7C9.7999 81.5 9.69989 81.4 9.69989 81.4C9.39989 81.4 9.09989 81.5 8.69989 81.8C8.29989 82.1 7.89991 82.2 7.59991 82.2L6.8999 82.1C6.4999 82.1 6.2999 82.5 6.2999 83.2C6.2999 83.9 6.29989 84.3 6.19989 84.3C5.79989 84.3 5.49991 83.8 5.49991 82.8C5.49991 81.9 5.7999 81.2 6.2999 80.7C6.5999 80.5 6.7999 80.3 6.7999 79.9C6.7999 79.6 7.59989 78.9 9.19989 77.9C9.79989 77.5 10.4999 77.2 11.2999 77C12.0999 76.8 13.1999 75.9 14.5999 74.5C15.2999 73.9 15.7999 73.6 16.1999 73.6C16.3999 73.6 16.5999 73.7 16.6999 73.9C16.7999 74.1 16.9999 74.2 17.1999 74.2L17.0999 73.8C15.7999 72.9 14.7999 71.8 14.0999 70.5C13.7999 69.9 13.2999 69.2 12.3999 68.4C11.4999 67.6 10.4999 66.2 9.3999 64C8.7999 62.8 8.2999 62 7.7999 61.5C6.2999 60 5.3999 58 4.8999 55.3C4.7999 55.2 4.69989 55.1 4.69989 55.1C4.69989 55 4.5999 55 4.3999 55C4.1999 55 3.79991 54 2.99991 52.1V51.4C2.89991 51.1 2.8999 50.9 2.8999 50.7C2.8999 50.5 2.79989 50 2.69989 49.2C2.49989 48.4 2.49991 47.3 2.49991 45.9C2.49991 45.4 2.39989 44.9 2.19989 44.6C1.99989 44.3 1.8999 42.9 1.8999 40.6C1.8999 40 2.09991 39.3 2.59991 38.6C1.49991 36.2 0.899902 33.5 0.899902 30.3C0.899902 29.2 0.99989 28.7 1.19989 28.7C1.39989 28.7 1.49991 28.6 1.59991 28.5C1.59991 28.4 1.4999 28.4 1.3999 28.4C1.2999 28.4 1.19989 28 1.19989 27.3C1.39989 25.8 1.69991 24.4 2.09991 23.1C3.09991 19.8 3.59991 18 3.59991 17.9C3.59991 17.8 3.79989 17.2 4.19989 16.4C4.59989 15.6 4.7999 15 4.8999 14.6C4.8999 14.2 4.6999 13.9 4.3999 13.7C4.0999 13.5 3.89989 13.2 3.69989 12.9C3.59989 12.7 3.39991 12.4 3.09991 12.1C2.19991 10.7 1.7999 9.29999 1.7999 7.89999C1.7999 7.49999 1.69991 7.09999 1.59991 6.79999C1.49991 6.49999 1.3999 6.19999 1.3999 5.89999C1.3999 5.59999 1.59991 5.09999 2.09991 4.29999C2.19991 3.99999 2.2999 3.89999 2.3999 3.79999C2.4999 3.69999 2.49991 3.59999 2.49991 3.49999C2.49991 3.39999 2.69989 3.19999 3.19989 3.19999C3.39989 3.29999 3.49989 3.29999 3.69989 3.29999C3.89989 3.29999 4.19989 3.39999 4.69989 3.69999C4.79989 3.99999 5.1999 4.19999 5.8999 4.59999C6.5999 4.89999 7.0999 5.39999 7.2999 5.99999C7.5999 6.59999 8.0999 7.29999 8.8999 8.09999C9.1999 8.39999 9.39989 8.49999 9.69989 8.49999C9.99989 8.49999 10.4999 8.79999 11.1999 9.29999C11.1999 9.39999 11.3999 9.39999 11.6999 9.39999C11.9999 9.39999 12.2999 9.49999 12.5999 9.79999C14.1999 9.79999 15.1999 9.89999 15.3999 9.99999C15.5999 10.1 15.8999 10.2 16.3999 10.2H17.0999C18.9999 10.2 19.9999 10.2 20.0999 10.3H21.1999C21.5999 10.1 22.2999 9.99999 23.3999 9.99999L24.3999 10.1C24.7999 10.1 25.0999 9.99999 25.0999 9.69999C25.2999 9.59999 25.4999 9.39999 25.6999 9.29999C25.8999 9.19999 25.9999 9.09999 25.9999 8.99999C25.9999 8.89999 26.1999 8.79999 26.6999 8.79999C27.1999 8.79999 27.3999 8.29999 27.5999 7.39999C27.7999 6.49999 28.4999 5.19999 29.6999 3.69999C29.8999 3.49999 29.9999 3.29999 30.1999 2.99999C30.3999 2.69999 30.6999 2.29999 31.2999 1.99999C31.8999 1.59999 32.2999 1.29999 32.4999 1.09999C32.6999 0.899989 32.8999 0.799988 33.1999 0.799988C33.8999 0.999988 34.3999 1.39999 34.5999 1.99999C34.7999 2.59999 34.8999 2.99999 34.9999 3.29999C35.0999 3.59999 35.0999 3.79999 35.0999 3.99999C35.0999 4.19999 35.1999 4.49999 35.2999 4.89999C34.9999 6.19999 34.7999 7.09999 34.4999 7.69999C34.1999 8.29999 34.0999 9.09999 34.0999 10.2C34.1999 10.6 34.1999 10.9 34.1999 11.1C34.1999 11.3 34.2999 11.7 34.4999 12.1C34.6999 12.5 34.8999 13.1 35.0999 13.9C35.2999 14.7 35.3999 15.3 35.3999 15.7C35.3999 17.6 36.3999 20.2 38.3999 23.7C39.0999 25.1 39.5999 26.1 39.8999 26.7C40.1999 27.3 40.2999 28.9 40.2999 31.4C40.6999 31.7 41.0999 31.9 41.3999 32.3C41.6999 32.6 41.9999 32.9 42.3999 33.1C42.7999 33.3 43.0999 33.6 43.4999 33.9C43.8999 34.2 44.5999 34.7 45.7999 35.3C46.0999 35.6 46.2999 35.9 46.5999 36.4C47.4999 37.5 48.0999 38.2 48.5999 38.6C49.8999 40.4 50.8999 42.6 51.5999 45.4C51.5999 46 51.6999 46.4 51.7999 46.6C51.8999 46.8 52.0999 47.3 52.1999 48.3C52.2999 48.7 52.3999 49.1 52.5999 49.4C53.0999 51.1 53.3999 53.3 53.3999 56C53.2999 56.2 53.1999 56.3 53.0999 56.3C52.8999 56.2 52.6999 56.1 52.3999 56L52.4999 56.9C52.8999 57.9 52.9999 58.9 52.9999 60C52.9999 60.3 52.9999 60.5 53.0999 60.8C53.1999 61.1 53.1999 61.3 53.1999 61.5C53.1999 61.7 53.3999 62.4 53.5999 63.7C53.7999 65 54.1999 66.3 54.7999 67.6C55.3999 68.9 55.5999 71.8 55.5999 76.3C55.5999 77.4 55.3999 78 55.0999 78C54.7999 78 54.5999 78 54.5999 78.1L54.6999 78.8C54.5999 78.8 53.8999 78.4 52.6999 77.6C52.4999 77.6 52.3999 77.8 52.3999 78.3C52.8999 79.3 53.2999 81.1 53.5999 83.5C53.8999 85.2 53.9999 86.2 54.0999 86.7C54.1999 87.2 54.1999 87.6 54.1999 88.1C54.1999 90.1 53.7999 91.1 52.9999 91.1C52.8999 91.1 52.8999 91.1 52.8999 91C52.8999 90.9 52.9999 90.7 53.1999 90.5C53.3999 90.3 53.4999 89.9 53.5999 89.5C53.5999 88.4 53.3999 87.8 53.0999 87.8V88.3C53.0999 89.2 53.0999 89.6 52.9999 89.6C52.6999 89.6 52.5999 89.5 52.5999 89.3C52.5999 89.1 52.4999 89 52.4999 88.9C52.1999 88.9 52.0999 89.1 52.0999 89.6C52.0999 90 52.1999 90.1 52.3999 90.1C52.5999 90.1 52.7999 90.1 52.8999 90.2C52.8999 90.4 52.5999 90.6 52.0999 90.6C51.8999 90.6 51.6999 90.5 51.5999 90.4C51.4999 90.2 51.2999 90.2 51.0999 90.2C50.9999 90.3 50.8999 90.3 50.5999 90.3C50.2999 90.3 50.2999 90.4 50.2999 90.6C50.2999 91.2 50.6999 91.5 51.5999 91.5L52.2999 91.4C52.2999 91.8 52.0999 91.9 51.6999 91.9C50.6999 91.9 49.9999 91.4 49.4999 90.5C49.3999 90.2 49.2999 90.1 49.1999 90.1C49.0999 90.2 49.0999 90.4 49.0999 90.6C49.0999 90.8 49.3999 91.3 49.9999 91.9C49.9999 92.3 49.5999 92.4 48.7999 92.4C48.5999 92.5 48.3999 92.4 48.2999 92.3Z" fill="#fff"/>
</svg>
